<svg version="1.1" xmlns="http://www.w3.org/2000/svg" viewBox="-2355.9912511545394 -1573.760073852539 5118.743337031005 2390.784063720703"><desc>Created with Snap</desc><defs></defs><g><rect x="-2355.9912511545394" y="-1573.760073852539" width="5118.743337031005" height="2390.784063720703" fill="#007c2f" style=""></rect><g transform="matrix(23.3805,0,0,23.3805,-2341.3111,-1559.1092)"><g><path d="M74.265,60.41c0.964,2.929,1.401,5.966,1.261,9.015c2.584-0.989,5.013-2.49,7.095-4.572c0.244-0.244,0.41-0.527,0.637-0.78   c0.018-0.341,0.105-0.659,0.105-1.004c0-2.924-0.646-5.691-1.764-8.203C79.522,57.139,77.045,59.022,74.265,60.41z" fill="#ffffff" style=""></path><path d="M54.863,81.605c2.509,1.112,5.276,1.759,8.2,1.759c0.349,0,0.664-0.085,1.004-0.103c0.253-0.227,0.541-0.393,0.781-0.637   c2.08-2.085,3.585-4.516,4.572-7.104c-3.049,0.14-6.086-0.292-9.01-1.257C59.022,77.049,57.137,79.528,54.863,81.605z" fill="#ffffff" style=""></path><path d="M40.588,74.265c-2.925,0.965-5.965,1.396-9.013,1.257c0.988,2.588,2.49,5.023,4.573,7.104   c0.242,0.244,0.528,0.41,0.779,0.637c0.339,0.018,0.661,0.103,1.003,0.103c2.926,0,5.691-0.646,8.202-1.759   C43.861,79.528,41.976,77.049,40.588,74.265z" fill="#ffffff" style=""></path><path d="M26.731,60.41c-2.781-1.388-5.26-3.271-7.337-5.545c-1.112,2.512-1.758,5.279-1.758,8.203c0,0.345,0.085,0.663,0.1,1.004   c0.229,0.253,0.395,0.536,0.639,0.78c2.082,2.082,4.515,3.583,7.098,4.572C25.333,66.376,25.767,63.339,26.731,60.41z" fill="#ffffff" style=""></path><path d="M26.731,40.592c-0.964-2.929-1.398-5.966-1.259-9.016c-2.583,0.989-5.014,2.491-7.098,4.572   c-0.244,0.245-0.41,0.528-0.639,0.781c-0.015,0.341-0.1,0.659-0.1,1.004c0,2.924,0.646,5.69,1.76,8.205   C21.471,43.863,23.95,41.979,26.731,40.592z" fill="#ffffff" style=""></path><path d="M46.132,19.397c-2.511-1.114-5.275-1.76-8.202-1.76c-0.342,0-0.664,0.084-1.003,0.102   c-0.251,0.228-0.537,0.393-0.779,0.638c-2.083,2.08-3.585,4.515-4.573,7.103c3.048-0.14,6.088,0.293,9.013,1.257   C41.976,23.952,43.861,21.475,46.132,19.397z" fill="#ffffff" style=""></path><path d="M60.41,26.736c2.924-0.964,5.961-1.396,9.01-1.257c-0.99-2.588-2.492-5.017-4.572-7.103   c-0.24-0.245-0.528-0.41-0.781-0.638c-0.34-0.018-0.659-0.102-1.004-0.102c-2.924,0-5.691,0.646-8.2,1.76   C57.137,21.475,59.022,23.952,60.41,26.736z" fill="#ffffff" style=""></path><path d="M82.621,36.148c-2.082-2.081-4.511-3.583-7.095-4.572c0.14,3.05-0.297,6.087-1.261,9.016   c2.78,1.388,5.257,3.271,7.334,5.547c1.117-2.515,1.764-5.281,1.764-8.205c0-0.345-0.088-0.663-0.105-1.004   C83.031,36.677,82.865,36.394,82.621,36.148z" fill="#ffffff" style=""></path><path d="M58.228,63.068c0-0.166-0.048-0.319-0.052-0.484c-1.061-0.21-2.09-0.498-3.099-0.834c-0.462,0.921-0.89,1.851-1.469,2.719   c0.113,0.122,0.19,0.267,0.309,0.384c1.143,1.14,2.404,2.069,3.718,2.881C57.993,66.228,58.228,64.683,58.228,63.068z" fill="#ffffff" style=""></path><path d="M43.362,67.733c1.313-0.812,2.574-1.741,3.715-2.881c0.12-0.117,0.199-0.262,0.312-0.384   c-0.581-0.868-1.008-1.798-1.471-2.719c-1.008,0.336-2.038,0.624-3.1,0.834c-0.002,0.165-0.048,0.318-0.048,0.484   C42.771,64.683,43.006,66.228,43.362,67.733z" fill="#ffffff" style=""></path><path d="M36.148,53.922c-1.139,1.14-2.068,2.4-2.88,3.717c1.503,0.355,3.051,0.59,4.663,0.59c0.166,0,0.318-0.044,0.484-0.048   c0.209-1.06,0.495-2.094,0.833-3.102c-0.918-0.463-1.848-0.886-2.716-1.471C36.411,53.726,36.269,53.805,36.148,53.922z" fill="#ffffff" style=""></path><path d="M38.415,42.821c-0.166-0.006-0.319-0.05-0.484-0.05c-1.612,0-3.159,0.236-4.663,0.591c0.812,1.318,1.739,2.578,2.88,3.717   c0.12,0.118,0.262,0.196,0.384,0.314c0.868-0.583,1.797-1.008,2.716-1.471C38.91,44.916,38.625,43.881,38.415,42.821z" fill="#ffffff" style=""></path><path d="M42.771,37.934c0,0.166,0.046,0.318,0.048,0.484c1.062,0.21,2.092,0.498,3.1,0.834c0.462-0.921,0.89-1.851,1.471-2.719   c-0.113-0.123-0.192-0.267-0.312-0.385c-1.141-1.139-2.402-2.066-3.715-2.879C43.006,34.774,42.771,36.319,42.771,37.934z" fill="#ffffff" style=""></path><path d="M57.635,33.27c-1.314,0.812-2.575,1.74-3.718,2.879c-0.118,0.118-0.195,0.262-0.309,0.385   c0.579,0.868,1.007,1.798,1.469,2.719c1.008-0.336,2.038-0.624,3.099-0.834c0.004-0.166,0.052-0.318,0.052-0.484   C58.228,36.319,57.993,34.774,57.635,33.27z" fill="#ffffff" style=""></path><path d="M63.063,42.771c-0.166,0-0.314,0.044-0.48,0.05c-0.209,1.06-0.498,2.095-0.838,3.102c0.921,0.463,1.851,0.888,2.719,1.471   c0.122-0.118,0.266-0.196,0.384-0.314c1.139-1.139,2.067-2.398,2.883-3.717C66.226,43.008,64.678,42.771,63.063,42.771z" fill="#ffffff" style=""></path><path d="M48.074,49.493c-0.035,0.676-0.035,1.339,0,2.012c0.452,0.502,0.921,0.969,1.42,1.423c0.671,0.034,1.335,0.034,2.007,0   c0.5-0.454,0.972-0.926,1.423-1.423c0.035-0.673,0.033-1.336,0-2.008c-0.451-0.502-0.921-0.969-1.42-1.423   c-0.673-0.035-1.34-0.035-2.012,0C48.995,48.528,48.524,48.995,48.074,49.493z" fill="#ffffff" style=""></path><path d="M64.464,53.608c-0.868,0.585-1.798,1.008-2.719,1.471c0.34,1.008,0.628,2.042,0.838,3.102   c0.166,0.004,0.314,0.048,0.48,0.048c1.615,0,3.163-0.234,4.668-0.59c-0.816-1.316-1.745-2.577-2.883-3.717   C64.73,53.805,64.586,53.726,64.464,53.608z" fill="#ffffff" style=""></path><path d="M72.271,55.926c2.583-1.327,4.827-3.173,6.615-5.425c-1.788-2.252-4.031-4.098-6.615-5.425   c-1.091,1.929-2.357,3.784-3.998,5.425C69.914,52.142,71.179,53.996,72.271,55.926z" fill="#ffffff" style=""></path><path d="M62.138,31.245c0.585,2.133,0.925,4.367,0.925,6.688c2.322,0,4.555,0.341,6.689,0.93c0.868-2.745,1.143-5.603,0.82-8.436   C67.74,30.104,64.879,30.375,62.138,31.245z" fill="#ffffff" style=""></path><path d="M50.498,22.11c-2.253,1.794-4.099,4.033-5.424,6.616c1.927,1.096,3.782,2.361,5.424,4.002   c1.644-1.641,3.498-2.906,5.426-4.002C54.597,26.144,52.752,23.904,50.498,22.11z" fill="#ffffff" style=""></path><path d="M37.931,37.934c0-2.321,0.34-4.556,0.927-6.688c-2.74-0.87-5.601-1.141-8.432-0.817c-0.323,2.833-0.05,5.69,0.817,8.436   C33.377,38.274,35.612,37.934,37.931,37.934z" fill="#ffffff" style=""></path><path d="M22.108,50.501c1.794,2.252,4.034,4.098,6.618,5.425c1.091-1.93,2.356-3.784,3.999-5.425   c-1.643-1.641-2.908-3.496-4.001-5.425C26.143,46.403,23.902,48.249,22.108,50.501z" fill="#ffffff" style=""></path><path d="M38.858,69.757c-0.587-2.133-0.927-4.367-0.927-6.688c-2.319,0-4.553-0.341-6.688-0.93   c-0.868,2.745-1.14,5.604-0.817,8.436C33.257,70.896,36.118,70.627,38.858,69.757z" fill="#ffffff" style=""></path><path d="M50.498,78.891c2.255-1.793,4.1-4.032,5.426-6.616c-1.929-1.095-3.782-2.36-5.426-4c-1.642,1.64-3.497,2.905-5.424,4   C46.401,74.858,48.245,77.098,50.498,78.891z" fill="#ffffff" style=""></path><path d="M63.063,63.068c0,2.321-0.34,4.556-0.925,6.688c2.741,0.87,5.602,1.139,8.435,0.817c0.323-2.832,0.048-5.695-0.82-8.436   C67.618,62.728,65.385,63.068,63.063,63.068z" fill="#ffffff" style=""></path><path d="M87.425,44.026c-0.571,2.304-1.457,4.476-2.614,6.475c1.157,1.999,2.043,4.177,2.614,6.475   C88.844,52.771,88.844,48.231,87.425,44.026z" fill="#ffffff" style=""></path><path d="M81.233,29.05c-1.981-4.041-5.244-7.301-9.286-9.282c1.249,2.063,2.147,4.268,2.745,6.541   C76.966,26.907,79.165,27.802,81.233,29.05z" fill="#ffffff" style=""></path><path d="M56.971,13.576c-4.204-1.418-8.742-1.418-12.947,0c2.3,0.571,4.473,1.453,6.473,2.614   C52.5,15.029,54.671,14.147,56.971,13.576z" fill="#ffffff" style=""></path><path d="M29.047,19.768c-4.042,1.981-7.301,5.241-9.284,9.282c2.066-1.248,4.268-2.143,6.541-2.741   C26.904,24.035,27.798,21.831,29.047,19.768z" fill="#ffffff" style=""></path><path d="M13.571,56.973c0.574-2.3,1.458-4.473,2.616-6.472c-1.159-1.999-2.04-4.171-2.616-6.472   C12.158,48.231,12.158,52.771,13.571,56.973z" fill="#ffffff" style=""></path><path d="M19.765,71.952c1.981,4.041,5.24,7.297,9.279,9.282c-1.248-2.068-2.141-4.269-2.741-6.542   C24.031,74.095,21.829,73.2,19.765,71.952z" fill="#ffffff" style=""></path><path d="M44.024,87.426c4.205,1.418,8.746,1.418,12.947,0c-2.3-0.572-4.472-1.453-6.474-2.614   C48.498,85.973,46.324,86.854,44.024,87.426z" fill="#ffffff" style=""></path><path d="M71.952,81.234c4.037-1.985,7.3-5.241,9.281-9.282c-2.068,1.248-4.267,2.143-6.541,2.74   C74.095,76.966,73.2,79.166,71.952,81.234z" fill="#ffffff" style=""></path></g><desc>Created with Snap</desc><defs></defs></g><g><g transform="matrix(1.024,0,0,-1.024,0,0)"><path d="M491 0L348 0Q345 17 344 30Q343 43 341 57Q307 23 267 3Q228 -16 184 -16Q108 -16 71 18Q34 53 34 103Q34 149 62 182Q91 216 136 237Q182 259 235 269Q289 280 339 279L339 341Q339 376 333 407Q327 438 307 458Q287 478 243 479Q214 480 183 468Q153 456 139 427Q147 419 149 408Q152 398 152 389Q152 377 142 361Q132 346 107 347Q86 347 75 361Q64 376 64 396Q64 430 89 457Q115 484 160 500Q205 516 262 516Q346 516 386 471Q426 427 425 331Q425 294 425 256Q425 219 424 181Q424 144 424 106Q424 90 423 74Q422 58 420 38Q438 39 455 40Q473 41 491 42L491 0ZM339 245Q305 244 267 236Q230 229 198 214Q167 199 147 174Q128 150 129 115Q131 78 153 59Q176 41 207 41Q248 41 278 56Q309 72 339 100Q338 111 338 124Q338 137 338 151Q338 156 338 183Q339 210 339 245ZM550 0L550 30Q581 30 593 45Q605 61 607 88Q609 116 609 152L609 625Q609 641 609 655Q610 670 612 690Q594 689 576 688Q559 687 541 686L541 728Q585 728 609 732Q634 736 646 742Q659 748 666 755L695 755L696 106Q696 86 695 70Q694 55 691 38Q707 39 722 39Q738 40 754 41L754 0L550 0ZM1020 -16Q997 -16 973 -10Q949 -3 928 16Q908 35 896 71Q884 108 884 168L886 458L809 457L809 500Q835 501 862 519Q889 538 910 570Q932 602 940 640L974 640L974 500L1142 500L1142 461L974 459L972 181Q972 136 979 104Q987 73 1004 57Q1021 41 1048 41Q1076 41 1100 57Q1125 73 1144 101L1171 79Q1149 46 1127 27Q1106 8 1086 -2Q1066 -11 1049 -14Q1032 -16 1020 -16ZM1666 0L1523 0Q1520 17 1519 30Q1518 43 1516 57Q1482 23 1442 3Q1403 -16 1359 -16Q1283 -16 1246 18Q1209 53 1209 103Q1209 149 1237 182Q1266 216 1311 237Q1357 259 1410 269Q1464 280 1514 279L1514 341Q1514 376 1508 407Q1502 438 1482 458Q1462 478 1418 479Q1389 480 1358 468Q1328 456 1314 427Q1322 419 1324 408Q1327 398 1327 389Q1327 377 1317 361Q1307 346 1282 347Q1261 347 1250 361Q1239 376 1239 396Q1239 430 1264 457Q1290 484 1335 500Q1380 516 1437 516Q1521 516 1561 471Q1601 427 1600 331Q1600 294 1600 256Q1600 219 1599 181Q1599 144 1599 106Q1599 90 1598 74Q1597 58 1595 38Q1613 39 1630 40Q1648 41 1666 42L1666 0ZM1514 245Q1480 244 1442 236Q1405 229 1373 214Q1342 199 1322 174Q1303 150 1304 115Q1306 78 1328 59Q1351 41 1382 41Q1423 41 1453 56Q1484 72 1514 100Q1513 111 1513 124Q1513 137 1513 151Q1513 156 1513 183Q1514 210 1514 245ZM1735 0L1735 30Q1766 30 1778 45Q1790 61 1792 88Q1794 116 1794 152L1794 380Q1794 396 1795 410Q1796 425 1798 445Q1780 444 1762 443Q1745 442 1727 441L1727 483Q1771 483 1795 487Q1819 491 1831 497Q1844 503 1851 510L1880 510L1880 106Q1880 86 1879 70Q1879 55 1876 38Q1892 39 1907 39Q1923 40 1939 41L1939 0L1735 0ZM1832 609Q1811 609 1795 626Q1779 643 1779 668Q1779 693 1795 710Q1812 728 1833 728Q1856 728 1871 710Q1887 693 1887 668Q1887 643 1870 626Q1854 609 1832 609ZM2016 0L2016 30Q2047 30 2059 45Q2071 61 2073 88Q2075 116 2075 152L2075 380Q2075 396 2075 412Q2076 428 2079 445Q2061 444 2043 443Q2026 443 2008 442L2008 483L2039 483Q2082 483 2098 491Q2115 500 2126 510L2155 510Q2157 494 2158 470Q2159 447 2160 411Q2175 436 2201 460Q2227 484 2259 500Q2292 516 2328 516Q2356 516 2377 501Q2398 486 2398 453Q2398 445 2393 433Q2388 422 2377 413Q2366 405 2348 405Q2326 406 2313 422Q2300 439 2303 461Q2278 462 2251 448Q2225 434 2202 409Q2179 385 2161 352L2162 106Q2162 86 2161 70Q2161 55 2158 38Q2174 39 2189 39Q2205 40 2221 41L2221 0L2016 0Z" fill="#ffffff" style=""></path></g></g></g></svg>